<svg width="32" height="33" viewBox="0 0 32 33" fill="none" xmlns="http://www.w3.org/2000/svg">
<g id="LightDarkSwitch">
<path id="Vector" d="M15.5999 22.9993C13.8015 22.9993 12.2686 22.3655 11.0011 21.098C9.73364 19.8306 9.09989 18.2976 9.09989 16.4993C9.09989 14.701 9.73364 13.1681 11.0011 11.9006C12.2686 10.6331 13.8015 9.99935 15.5999 9.99935C17.3982 9.99935 18.9311 10.6331 20.1986 11.9006C21.4661 13.1681 22.0998 14.701 22.0998 16.4993C22.0998 18.2976 21.4661 19.8306 20.1986 21.098C18.9311 22.3655 17.3982 22.9993 15.5999 22.9993ZM6.4999 17.5825H1.29993V15.4161H6.4999V17.5825ZM29.8998 17.5825H24.6998V15.4161H29.8998V17.5825ZM14.5166 7.39936V2.19939H16.6831V7.39936H14.5166ZM14.5166 30.7993V25.5993H16.6831V30.7993H14.5166ZM8.44989 10.8011L5.18918 7.64864L6.73813 6.05614L9.85811 9.30613L8.44989 10.8011ZM24.483 26.921L21.3091 23.66L22.7716 22.1761L26.0105 25.35L24.483 26.921ZM21.2766 9.32758L24.4505 6.08864L26.043 7.61614L22.8148 10.7793L21.2766 9.32758ZM5.17813 25.3611L8.41739 22.1868L9.92311 23.6711L6.74918 26.91L5.17813 25.3611Z" fill="#E8EAED"/>
</g>
</svg>
