<svg width="33" height="32" viewBox="0 0 33 32" fill="none" xmlns="http://www.w3.org/2000/svg">
<g id="LightDarkSwitch">
<path id="Vector" d="M16.6775 28.565C13.1837 28.565 10.214 27.3422 7.76841 24.8966C5.32279 22.4509 4.09998 19.4813 4.09998 15.9875C4.09998 12.4938 5.32279 9.52407 7.76841 7.07845C10.214 4.63282 13.1837 3.41001 16.6775 3.41001C17.0036 3.41001 17.3238 3.42166 17.6383 3.44495C17.9527 3.46824 18.2613 3.50318 18.5641 3.54976C17.6091 4.22522 16.8463 5.10448 16.2757 6.18754C15.705 7.2706 15.4197 8.44101 15.4197 9.69876C15.4197 11.795 16.1534 13.5768 17.6208 15.0442C19.0882 16.5116 20.87 17.2453 22.9662 17.2453C24.2473 17.2453 25.4235 16.9599 26.4949 16.3893C27.5663 15.8186 28.4398 15.0558 29.1152 14.1009C29.1618 14.4037 29.1967 14.7123 29.22 15.0267C29.2433 15.3412 29.255 15.6614 29.255 15.9875C29.255 19.4813 28.0322 22.4509 25.5865 24.8966C23.1409 27.3422 20.1712 28.565 16.6775 28.565Z" fill="#E8EAED"/>
</g>
</svg>
