<svg width="460" height="460" viewBox="0 0 460 460" fill="none" xmlns="http://www.w3.org/2000/svg">
<g clip-path="url(#clip0_30_180)">
<path fill-rule="evenodd" clip-rule="evenodd" d="M260 0V20L200 20V-2.62268e-06L260 0ZM20 200H0V260H20V200ZM460 200H440V260H460V200ZM260 460V440H200V460H260Z" fill="#011D44"/>
<mask id="path-2-outside-1_30_180" maskUnits="userSpaceOnUse" x="-1" y="-1" width="462" height="462" fill="black">
<rect fill="white" x="-1" y="-1" width="462" height="462"/>
<path d="M43.4315 43.4314C20 66.8629 20 104.575 20 180L20 210C20 214.714 20 217.071 21.4645 218.536C22.9289 220 25.286 220 30 220L68.014 220C74.9114 220 78.36 220 79.8467 221.625C81.3334 223.251 80.9423 227.633 80.16 236.398C80.0541 237.585 80 238.786 80 240C80 242.761 80.2799 245.457 80.8127 248.061C84.5425 266.289 100.67 280 120 280C142.091 280 160 262.091 160 240C160 238.786 159.946 237.585 159.84 236.398C159.058 227.633 158.667 223.251 160.153 221.625C161.64 220 165.089 220 171.986 220L210 220C214.714 220 217.071 220 218.536 218.536C220 217.071 220 214.714 220 210L220 171.986C220 165.089 220 161.64 221.625 160.153C223.251 158.667 227.633 159.058 236.398 159.84C237.585 159.946 238.786 160 240 160C242.761 160 245.458 159.72 248.061 159.187C266.289 155.457 280 139.33 280 120C280 97.9086 262.091 80 240 80C238.786 80 237.585 80.0541 236.398 80.1599C227.633 80.9422 223.251 81.3333 221.625 79.8466C220 78.36 220 74.9113 220 68.014L220 30C220 25.286 220 22.9289 218.536 21.4645C217.071 20 214.714 20 210 20L180 20C104.575 20 66.8629 20 43.4315 43.4314Z"/>
<path d="M300.16 236.398C300.942 227.633 301.333 223.251 299.847 221.625C298.36 220 294.911 220 288.014 220H250C245.286 220 242.929 220 241.464 218.536C240 217.071 240 214.714 240 210L240 190C240 185.495 240 183.242 241.184 181.844C242.369 180.445 244.899 180.023 249.958 179.177C278.356 174.434 300 149.745 300 120C300 90.2554 278.356 65.5661 249.958 60.8226C244.899 59.9774 242.369 59.5548 241.184 58.1563C240 56.7577 240 54.5052 240 50V30C240 25.286 240 22.9289 241.465 21.4645C242.929 20 245.286 20 250 20H280C355.425 20 393.137 20 416.569 43.4315C440 66.8629 440 104.575 440 180L440 210C440 214.714 440 217.071 438.536 218.536C437.071 220 434.714 220 430 220H391.986C385.089 220 381.64 220 380.153 221.625C378.667 223.251 379.058 227.633 379.84 236.398C379.946 237.585 380 238.786 380 240C380 241.552 379.912 243.084 379.74 244.59C379.774 245.94 379.354 247.587 378.766 249.899C374.381 267.122 358.819 279.882 340.259 279.999C340.173 280 340.086 280 340 280C322.051 280 306.863 268.178 301.798 251.895C301.589 251.22 301.396 250.538 301.222 249.849C300.64 247.564 300.227 245.931 300.261 244.591C300.088 243.084 300 241.552 300 240C300 238.786 300.054 237.585 300.16 236.398Z"/>
<path d="M221.625 299.847C223.251 301.333 227.633 300.942 236.398 300.16C237.585 300.054 238.786 300 240 300C262.091 300 280 317.909 280 340C280 362.091 262.091 380 240 380C238.786 380 237.585 379.946 236.398 379.84C227.633 379.058 223.251 378.667 221.625 380.153C220 381.64 220 385.089 220 391.986L220 430C220 434.714 220 437.071 218.536 438.536C217.071 440 214.714 440 210 440L180 440C104.575 440 66.8629 440 43.4315 416.569C20 393.137 20 355.425 20 280V250C20 245.286 20 242.929 21.4645 241.465C22.9289 240 25.286 240 30 240H50C54.5052 240 56.7577 240 58.1563 241.184C59.5548 242.369 59.9774 244.899 60.8226 249.958C65.5661 278.356 90.2554 300 120 300C149.745 300 174.434 278.356 179.177 249.958C180.023 244.899 180.445 242.369 181.844 241.184C183.242 240 185.495 240 190 240L210 240C214.714 240 217.071 240 218.536 241.464C220 242.929 220 245.286 220 250V288.014C220 294.911 220 298.36 221.625 299.847Z"/>
<path d="M240 430C240 434.714 240 437.071 241.464 438.536C242.929 440 245.286 440 250 440H280C355.425 440 393.137 440 416.569 416.569C440 393.137 440 355.425 440 280V250C440 245.286 440 242.929 438.536 241.464C437.071 240 434.714 240 430 240L410 240C405.495 240 403.242 240 401.844 241.184C400.445 242.369 400.023 244.898 399.177 249.958C394.434 278.356 369.745 300 340 300C310.255 300 285.566 278.356 280.823 249.958C279.977 244.898 279.555 242.369 278.156 241.184C276.758 240 274.505 240 270 240H250C245.286 240 242.929 240 241.464 241.464C240 242.929 240 245.286 240 250V270C240 274.505 240 276.758 241.184 278.156C242.369 279.555 244.898 279.977 249.958 280.823C278.356 285.566 300 310.255 300 340C300 369.745 278.356 394.434 249.958 399.177C244.899 400.022 242.369 400.445 241.184 401.844C240 403.242 240 405.495 240 410L240 430Z"/>
</mask>
<path d="M43.4315 43.4314C20 66.8629 20 104.575 20 180L20 210C20 214.714 20 217.071 21.4645 218.536C22.9289 220 25.286 220 30 220L68.014 220C74.9114 220 78.36 220 79.8467 221.625C81.3334 223.251 80.9423 227.633 80.16 236.398C80.0541 237.585 80 238.786 80 240C80 242.761 80.2799 245.457 80.8127 248.061C84.5425 266.289 100.67 280 120 280C142.091 280 160 262.091 160 240C160 238.786 159.946 237.585 159.84 236.398C159.058 227.633 158.667 223.251 160.153 221.625C161.64 220 165.089 220 171.986 220L210 220C214.714 220 217.071 220 218.536 218.536C220 217.071 220 214.714 220 210L220 171.986C220 165.089 220 161.64 221.625 160.153C223.251 158.667 227.633 159.058 236.398 159.84C237.585 159.946 238.786 160 240 160C242.761 160 245.458 159.72 248.061 159.187C266.289 155.457 280 139.33 280 120C280 97.9086 262.091 80 240 80C238.786 80 237.585 80.0541 236.398 80.1599C227.633 80.9422 223.251 81.3333 221.625 79.8466C220 78.36 220 74.9113 220 68.014L220 30C220 25.286 220 22.9289 218.536 21.4645C217.071 20 214.714 20 210 20L180 20C104.575 20 66.8629 20 43.4315 43.4314Z" stroke="#011D44" stroke-width="40" mask="url(#path-2-outside-1_30_180)"/>
<path d="M300.16 236.398C300.942 227.633 301.333 223.251 299.847 221.625C298.36 220 294.911 220 288.014 220H250C245.286 220 242.929 220 241.464 218.536C240 217.071 240 214.714 240 210L240 190C240 185.495 240 183.242 241.184 181.844C242.369 180.445 244.899 180.023 249.958 179.177C278.356 174.434 300 149.745 300 120C300 90.2554 278.356 65.5661 249.958 60.8226C244.899 59.9774 242.369 59.5548 241.184 58.1563C240 56.7577 240 54.5052 240 50V30C240 25.286 240 22.9289 241.465 21.4645C242.929 20 245.286 20 250 20H280C355.425 20 393.137 20 416.569 43.4315C440 66.8629 440 104.575 440 180L440 210C440 214.714 440 217.071 438.536 218.536C437.071 220 434.714 220 430 220H391.986C385.089 220 381.64 220 380.153 221.625C378.667 223.251 379.058 227.633 379.84 236.398C379.946 237.585 380 238.786 380 240C380 241.552 379.912 243.084 379.74 244.59C379.774 245.94 379.354 247.587 378.766 249.899C374.381 267.122 358.819 279.882 340.259 279.999C340.173 280 340.086 280 340 280C322.051 280 306.863 268.178 301.798 251.895C301.589 251.22 301.396 250.538 301.222 249.849C300.64 247.564 300.227 245.931 300.261 244.591C300.088 243.084 300 241.552 300 240C300 238.786 300.054 237.585 300.16 236.398Z" stroke="#011D44" stroke-width="40" mask="url(#path-2-outside-1_30_180)"/>
<path d="M221.625 299.847C223.251 301.333 227.633 300.942 236.398 300.16C237.585 300.054 238.786 300 240 300C262.091 300 280 317.909 280 340C280 362.091 262.091 380 240 380C238.786 380 237.585 379.946 236.398 379.84C227.633 379.058 223.251 378.667 221.625 380.153C220 381.64 220 385.089 220 391.986L220 430C220 434.714 220 437.071 218.536 438.536C217.071 440 214.714 440 210 440L180 440C104.575 440 66.8629 440 43.4315 416.569C20 393.137 20 355.425 20 280V250C20 245.286 20 242.929 21.4645 241.465C22.9289 240 25.286 240 30 240H50C54.5052 240 56.7577 240 58.1563 241.184C59.5548 242.369 59.9774 244.899 60.8226 249.958C65.5661 278.356 90.2554 300 120 300C149.745 300 174.434 278.356 179.177 249.958C180.023 244.899 180.445 242.369 181.844 241.184C183.242 240 185.495 240 190 240L210 240C214.714 240 217.071 240 218.536 241.464C220 242.929 220 245.286 220 250V288.014C220 294.911 220 298.36 221.625 299.847Z" stroke="#011D44" stroke-width="40" mask="url(#path-2-outside-1_30_180)"/>
<path d="M240 430C240 434.714 240 437.071 241.464 438.536C242.929 440 245.286 440 250 440H280C355.425 440 393.137 440 416.569 416.569C440 393.137 440 355.425 440 280V250C440 245.286 440 242.929 438.536 241.464C437.071 240 434.714 240 430 240L410 240C405.495 240 403.242 240 401.844 241.184C400.445 242.369 400.023 244.898 399.177 249.958C394.434 278.356 369.745 300 340 300C310.255 300 285.566 278.356 280.823 249.958C279.977 244.898 279.555 242.369 278.156 241.184C276.758 240 274.505 240 270 240H250C245.286 240 242.929 240 241.464 241.464C240 242.929 240 245.286 240 250V270C240 274.505 240 276.758 241.184 278.156C242.369 279.555 244.898 279.977 249.958 280.823C278.356 285.566 300 310.255 300 340C300 369.745 278.356 394.434 249.958 399.177C244.899 400.022 242.369 400.445 241.184 401.844C240 403.242 240 405.495 240 410L240 430Z" stroke="#011D44" stroke-width="40" mask="url(#path-2-outside-1_30_180)"/>
<path d="M240 430C240 434.714 240 437.071 241.464 438.536C242.929 440 245.286 440 250 440H280C355.425 440 393.137 440 416.569 416.569C440 393.137 440 355.425 440 280V250C440 245.286 440 242.929 438.536 241.464C437.071 240 434.714 240 430 240L410 240C405.495 240 403.242 240 401.844 241.184C400.445 242.369 400.023 244.898 399.177 249.958C394.434 278.356 369.745 300 340 300C310.255 300 285.566 278.356 280.823 249.958C279.977 244.898 279.555 242.369 278.156 241.184C276.758 240 274.505 240 270 240H250C245.286 240 242.929 240 241.464 241.464C240 242.929 240 245.286 240 250L240 270C240 274.505 240 276.758 241.184 278.156C242.369 279.555 244.898 279.977 249.958 280.823C278.356 285.566 300 310.255 300 340C300 369.745 278.356 394.434 249.958 399.177C244.898 400.023 242.369 400.445 241.184 401.844C240 403.242 240 405.495 240 410L240 430Z" fill="#59C059"/>
<path d="M260 340C260 331.42 257.299 323.471 252.7 316.957C248.883 311.55 246.975 308.847 243.487 309.954C240 311.061 240 314.937 240 322.689L240 357.311C240 365.063 240 368.939 243.487 370.046C246.975 371.153 248.883 368.45 252.7 363.043C257.299 356.529 260 348.58 260 340Z" fill="#59C059"/>
<path d="M370 240C374.866 240 377.3 240 378.801 241.931C380.302 243.863 379.79 245.875 378.766 249.899C374.361 267.202 358.675 280 340 280C321.325 280 305.639 267.202 301.234 249.899C300.21 245.875 299.698 243.863 301.199 241.931C302.7 240 305.134 240 310 240H370Z" fill="#59C059"/>
<path fill-rule="evenodd" clip-rule="evenodd" d="M236.398 300.16C227.633 300.942 223.251 301.333 221.625 299.847C220 298.36 220 294.911 220 288.014V250C220 245.286 220 242.929 218.536 241.464C217.071 240 214.714 240 210 240L190 240C185.495 240 183.242 240 181.844 241.184C180.445 242.369 180.023 244.899 179.177 249.958C174.434 278.356 149.745 300 120 300C90.2554 300 65.5661 278.356 60.8226 249.958C59.9774 244.899 59.5548 242.369 58.1563 241.184C56.7577 240 54.5052 240 50 240L30 240C25.286 240 22.9289 240 21.4645 241.465C20 242.929 20 245.286 20 250L20 280C20 355.425 20 393.137 43.4315 416.569C66.8629 440 104.575 440 180 440L210 440C214.714 440 217.071 440 218.536 438.536C220 437.071 220 434.714 220 430L220 391.986C220 385.089 220 381.64 221.625 380.153C223.251 378.667 227.633 379.058 236.398 379.84C237.585 379.946 238.786 380 240 380C262.091 380 280 362.091 280 340C280 317.909 262.091 300 240 300C238.786 300 237.585 300.054 236.398 300.16ZM80 240V240L160 240V240C160 262.091 142.091 280 120 280C97.9086 280 80 262.091 80 240Z" fill="#CF63CF"/>
<path fill-rule="evenodd" clip-rule="evenodd" d="M300.16 236.398C300.942 227.633 301.333 223.251 299.847 221.625C298.36 220 294.911 220 288.014 220H250C245.286 220 242.929 220 241.464 218.536C240 217.071 240 214.714 240 210L240 190C240 185.495 240 183.242 241.184 181.844C242.369 180.445 244.899 180.023 249.958 179.177C278.356 174.434 300 149.745 300 120C300 90.2554 278.356 65.5661 249.958 60.8226C244.899 59.9774 242.369 59.5548 241.184 58.1563C240 56.7577 240 54.5052 240 50V30C240 25.286 240 22.9289 241.465 21.4645C242.929 20 245.286 20 250 20H280C355.425 20 393.137 20 416.569 43.4315C440 66.8629 440 104.575 440 180L440 210C440 214.714 440 217.071 438.536 218.536C437.071 220 434.714 220 430 220H391.986C385.089 220 381.64 220 380.153 221.625C378.667 223.251 379.058 227.633 379.84 236.398C379.946 237.585 380 238.786 380 240C380 262.091 362.091 280 340 280C317.909 280 300 262.091 300 240C300 238.786 300.054 237.585 300.16 236.398ZM240 80V80V160V160C262.091 160 280 142.091 280 120C280 97.9086 262.091 80 240 80Z" fill="#4C97FF"/>
<path fill-rule="evenodd" clip-rule="evenodd" d="M20 180C20 104.575 20 66.8629 43.4315 43.4314C66.8629 20 104.575 20 180 20L210 20C214.714 20 217.071 20 218.536 21.4645C220 22.9289 220 25.286 220 30L220 68.014C220 74.9113 220 78.36 221.625 79.8466C223.251 81.3333 227.633 80.9422 236.398 80.1599C237.585 80.0541 238.786 80 240 80C262.091 80 280 97.9086 280 120C280 142.091 262.091 160 240 160C238.786 160 237.585 159.946 236.398 159.84C227.633 159.058 223.251 158.667 221.625 160.153C220 161.64 220 165.089 220 171.986L220 210C220 214.714 220 217.071 218.536 218.536C217.071 220 214.714 220 210 220L171.986 220C165.089 220 161.64 220 160.153 221.625C158.667 223.251 159.058 227.633 159.84 236.398C159.946 237.585 160 238.786 160 240C160 262.091 142.091 280 120 280C97.9086 280 80 262.091 80 240C80 238.786 80.0541 237.585 80.16 236.398C80.9423 227.633 81.3334 223.251 79.8467 221.625C78.36 220 74.9114 220 68.014 220L30 220C25.286 220 22.9289 220 21.4645 218.536C20 217.071 20 214.714 20 210L20 180Z" fill="#FFBF00"/>
<path d="M94.853 165V75.4H112.389V149H151.813V165H94.853Z" fill="white"/>
<path d="M339.728 165V75.4H357.264V165H339.728Z" fill="white"/>
<path d="M329.041 402V312.4H385.745V328.4H346.577V348.752H380.369V364.368H346.577V386H386.257V402H329.041Z" fill="white"/>
<path d="M105.968 402L139.888 312.4H158.704L123.12 402H105.968ZM104.048 402L68.3364 312.4H87.1524L121.2 402H104.048Z" fill="white"/>
</g>
<defs>
<clipPath id="clip0_30_180">
<rect width="460" height="460" fill="white"/>
</clipPath>
</defs>
</svg>
