<svg width="420" height="420" viewBox="0 0 420 420" fill="none" xmlns="http://www.w3.org/2000/svg">
<g clip-path="url(#clip0_30_29)">
<path d="M220 410C220 414.714 220 417.071 221.464 418.536C222.929 420 225.286 420 230 420H260C335.425 420 373.137 420 396.569 396.569C420 373.137 420 335.425 420 260V230C420 225.286 420 222.929 418.536 221.464C417.071 220 414.714 220 410 220L390 220C385.495 220 383.242 220 381.844 221.184C380.445 222.369 380.023 224.898 379.177 229.958C374.434 258.356 349.745 280 320 280C290.255 280 265.566 258.356 260.823 229.958C259.977 224.898 259.555 222.369 258.156 221.184C256.758 220 254.505 220 250 220H230C225.286 220 222.929 220 221.464 221.464C220 222.929 220 225.286 220 230L220 250C220 254.505 220 256.758 221.184 258.156C222.369 259.555 224.898 259.977 229.958 260.823C258.356 265.566 280 290.255 280 320C280 349.745 258.356 374.434 229.958 379.177C224.898 380.023 222.369 380.445 221.184 381.844C220 383.242 220 385.495 220 390L220 410Z" fill="#59C059"/>
<path d="M240 320C240 311.42 237.299 303.471 232.7 296.957C228.883 291.55 226.975 288.847 223.487 289.954C220 291.061 220 294.937 220 302.689L220 337.311C220 345.063 220 348.939 223.487 350.046C226.975 351.153 228.883 348.45 232.7 343.043C237.299 336.529 240 328.58 240 320Z" fill="#59C059"/>
<path d="M350 220C354.866 220 357.3 220 358.801 221.931C360.302 223.863 359.79 225.875 358.766 229.899C354.361 247.202 338.675 260 320 260C301.325 260 285.639 247.202 281.234 229.899C280.21 225.875 279.698 223.863 281.199 221.931C282.7 220 285.134 220 290 220H350Z" fill="#59C059"/>
<path fill-rule="evenodd" clip-rule="evenodd" d="M216.398 280.16C207.633 280.942 203.251 281.333 201.625 279.847C200 278.36 200 274.911 200 268.014V230C200 225.286 200 222.929 198.536 221.464C197.071 220 194.714 220 190 220L170 220C165.495 220 163.242 220 161.844 221.184C160.445 222.369 160.023 224.899 159.177 229.958C154.434 258.356 129.745 280 100 280C70.2554 280 45.5661 258.356 40.8226 229.958C39.9774 224.899 39.5548 222.369 38.1563 221.184C36.7577 220 34.5052 220 30 220L10 220C5.28595 220 2.92893 220 1.46447 221.465C-2.38419e-07 222.929 -2.05904e-07 225.286 1.54159e-10 230L1.31149e-06 260C9.65379e-06 335.425 1.33514e-05 373.137 23.4315 396.569C46.8629 420 84.5753 420 160 420L190 420C194.714 420 197.071 420 198.536 418.536C200 417.071 200 414.714 200 410L200 371.986C200 365.089 200 361.64 201.625 360.153C203.251 358.667 207.633 359.058 216.398 359.84C217.585 359.946 218.786 360 220 360C242.091 360 260 342.091 260 320C260 297.909 242.091 280 220 280C218.786 280 217.585 280.054 216.398 280.16ZM60 220V220L140 220V220C140 242.091 122.091 260 100 260C77.9086 260 60 242.091 60 220Z" fill="#CF63CF"/>
<path fill-rule="evenodd" clip-rule="evenodd" d="M280.16 216.398C280.942 207.633 281.333 203.251 279.847 201.625C278.36 200 274.911 200 268.014 200H230C225.286 200 222.929 200 221.464 198.536C220 197.071 220 194.714 220 190L220 170C220 165.495 220 163.242 221.184 161.844C222.369 160.445 224.899 160.023 229.958 159.177C258.356 154.434 280 129.745 280 100C280 70.2554 258.356 45.5661 229.958 40.8226C224.899 39.9774 222.369 39.5548 221.184 38.1563C220 36.7577 220 34.5052 220 30V10C220 5.28596 220 2.92893 221.465 1.46447C222.929 0 225.286 0 230 0H260C335.425 5.04538e-06 373.137 7.62939e-06 396.569 23.4315C420 46.8629 420 84.5753 420 160L420 190C420 194.714 420 197.071 418.536 198.536C417.071 200 414.714 200 410 200H371.986C365.089 200 361.64 200 360.153 201.625C358.667 203.251 359.058 207.633 359.84 216.398C359.946 217.585 360 218.786 360 220C360 242.091 342.091 260 320 260C297.909 260 280 242.091 280 220C280 218.786 280.054 217.585 280.16 216.398ZM220 60V60V140V140C242.091 140 260 122.091 260 100C260 77.9086 242.091 60 220 60Z" fill="#4C97FF"/>
<path fill-rule="evenodd" clip-rule="evenodd" d="M5.2466e-06 160C1.84343e-05 84.5752 2.47955e-05 46.8629 23.4315 23.4314C46.8629 -2.09808e-05 84.5753 -1.31679e-05 160 1.97781e-08L190 5.26514e-06C194.714 6.08937e-06 197.071 6.55651e-06 198.536 1.46447C200 2.92894 200 5.28596 200 10L200 48.014C200 54.9113 200 58.36 201.625 59.8466C203.251 61.3333 207.633 60.9422 216.398 60.1599C217.585 60.0541 218.786 60 220 60C242.091 60 260 77.9086 260 100C260 122.091 242.091 140 220 140C218.786 140 217.585 139.946 216.398 139.84C207.633 139.058 203.251 138.667 201.625 140.153C200 141.64 200 145.089 200 151.986L200 190C200 194.714 200 197.071 198.536 198.536C197.071 200 194.714 200 190 200L151.986 200C145.089 200 141.64 200 140.153 201.625C138.667 203.251 139.058 207.633 139.84 216.398C139.946 217.585 140 218.786 140 220C140 242.091 122.091 260 100 260C77.9086 260 60 242.091 60 220C60 218.786 60.0541 217.585 60.16 216.398C60.9423 207.633 61.3334 203.251 59.8467 201.625C58.36 200 54.9114 200 48.014 200L10 200C5.28595 200 2.92893 200 1.46446 198.536C-1.19209e-06 197.071 -8.22994e-07 194.714 1.23578e-09 190L5.2466e-06 160Z" fill="#FFBF00"/>
<path d="M74.853 145V55.4H92.389V129H131.813V145H74.853Z" fill="white"/>
<path d="M319.728 145V55.4H337.264V145H319.728Z" fill="white"/>
<path d="M309.041 382V292.4H365.745V308.4H326.577V328.752H360.369V344.368H326.577V366H366.257V382H309.041Z" fill="white"/>
<path d="M85.9686 382L119.889 292.4H138.705L103.121 382H85.9686ZM84.0485 382L48.3365 292.4H67.1525L101.201 382H84.0485Z" fill="white"/>
</g>
<defs>
<clipPath id="clip0_30_29">
<rect width="420" height="420" fill="white"/>
</clipPath>
</defs>
</svg>
