<svg width="533" height="424" viewBox="0 0 533 424" fill="none" xmlns="http://www.w3.org/2000/svg">
<g filter="url(#filter0_i_14_30)">
<circle cx="503.5" cy="314.5" r="29.5" fill="#59C059"/>
</g>
<g filter="url(#filter1_i_14_30)">
<path d="M274 219H479V289.75L484.5 292V336L479 340.5V340.5C479 386.616 441.616 424 395.5 424H274V219Z" fill="#59C059"/>
</g>
<path d="M354.75 364C351.45 364 348.9 363.15 347.1 361.45C345.4 359.65 344.55 357.1 344.55 353.8V268.45C344.55 265.15 345.4 262.65 347.1 260.95C348.9 259.15 351.45 258.25 354.75 258.25H408.3C410.8 258.25 412.7 258.9 414 260.2C415.4 261.5 416.1 263.35 416.1 265.75C416.1 268.25 415.4 270.2 414 271.6C412.7 272.9 410.8 273.55 408.3 273.55H363V302.65H405C407.6 302.65 409.55 303.3 410.85 304.6C412.15 305.9 412.8 307.8 412.8 310.3C412.8 312.8 412.15 314.7 410.85 316C409.55 317.3 407.6 317.95 405 317.95H363V348.7H408.3C410.8 348.7 412.7 349.35 414 350.65C415.4 351.95 416.1 353.85 416.1 356.35C416.1 358.85 415.4 360.75 414 362.05C412.7 363.35 410.8 364 408.3 364H354.75Z" fill="white"/>
<g filter="url(#filter2_i_14_30)">
<circle cx="283.5" cy="314.5" r="29.5" fill="#CF63CF"/>
</g>
<g filter="url(#filter3_i_14_30)">
<path d="M54 219H259V289.75L264.5 292V336L259 340.5V424H143C93.8467 424 54 384.153 54 335V219Z" fill="#CF63CF"/>
</g>
<path d="M160.55 372.2C157.85 372.2 155.6 371.6 153.8 370.4C152.1 369.1 150.7 367.2 149.6 364.7L110.45 276.8C109.35 274.3 109.05 272.1 109.55 270.2C110.05 268.3 111.1 266.8 112.7 265.7C114.3 264.6 116.2 264.05 118.4 264.05C121.3 264.05 123.45 264.7 124.85 266C126.35 267.2 127.6 269.05 128.6 271.55L164.15 353.9H157.7L193.1 271.4C194.2 269 195.5 267.2 197 266C198.5 264.7 200.6 264.05 203.3 264.05C205.5 264.05 207.3 264.6 208.7 265.7C210.2 266.8 211.15 268.3 211.55 270.2C211.95 272.1 211.6 274.3 210.5 276.8L171.35 364.7C170.25 367.2 168.85 369.1 167.15 370.4C165.55 371.6 163.35 372.2 160.55 372.2Z" fill="white"/>
<g filter="url(#filter4_ii_14_30)">
<path d="M274 0H408.25C447.324 0 479 31.6759 479 70.75V70.75V205H401.5H350.75H274V0Z" fill="#4C97FF"/>
</g>
<g filter="url(#filter5_i_14_30)">
<circle cx="376.5" cy="218.5" r="29.5" fill="#4C97FF"/>
</g>
<path d="M355 182H398L391.582 194H361.418L355 182Z" fill="#4C97FF"/>
<path d="M378.15 153.2C375.05 153.2 372.65 152.35 370.95 150.65C369.35 148.85 368.55 146.4 368.55 143.3V54.95C368.55 51.75 369.35 49.3 370.95 47.6C372.65 45.9 375.05 45.05 378.15 45.05C381.25 45.05 383.6 45.9 385.2 47.6C386.9 49.3 387.75 51.75 387.75 54.95V143.3C387.75 146.4 386.95 148.85 385.35 150.65C383.75 152.35 381.35 153.2 378.15 153.2Z" fill="white"/>
<g filter="url(#filter6_ii_14_30)">
<circle cx="283.5" cy="95.5" r="29.5" fill="#FFBF00"/>
</g>
<g filter="url(#filter7_ii_14_30)">
<circle cx="29.5" cy="95.5" r="29.5" fill="#FFBF00"/>
</g>
<g filter="url(#filter8_ii_14_30)">
<path d="M54 70.75C54 31.6759 85.6759 0 124.75 0H259V70.75L264.5 73V117L259 121.5V205H54V121.5L48.5 117V73L54 70.75V70.75Z" fill="#FFBF00"/>
</g>
<path d="M135 182H178L171.582 194H141.418L135 182Z" fill="#FFBF00"/>
<g filter="url(#filter9_i_14_30)">
<circle cx="156.5" cy="218.5" r="29.5" fill="#FFBF00"/>
</g>
<path d="M136.3 152C133.2 152 130.8 151.15 129.1 149.45C127.4 147.65 126.55 145.2 126.55 142.1V55.55C126.55 52.35 127.35 49.95 128.95 48.35C130.65 46.65 133.05 45.8 136.15 45.8C139.25 45.8 141.6 46.65 143.2 48.35C144.9 49.95 145.75 52.35 145.75 55.55V135.65H189.25C191.95 135.65 194 136.35 195.4 137.75C196.9 139.15 197.65 141.15 197.65 143.75C197.65 146.35 196.9 148.4 195.4 149.9C194 151.3 191.95 152 189.25 152H136.3Z" fill="white"/>
<defs>
<filter id="filter0_i_14_30" x="474" y="285" width="59" height="59" filterUnits="userSpaceOnUse" color-interpolation-filters="sRGB">
<feFlood flood-opacity="0" result="BackgroundImageFix"/>
<feBlend mode="normal" in="SourceGraphic" in2="BackgroundImageFix" result="shape"/>
<feColorMatrix in="SourceAlpha" type="matrix" values="0 0 0 0 0 0 0 0 0 0 0 0 0 0 0 0 0 0 127 0" result="hardAlpha"/>
<feOffset dy="-12"/>
<feComposite in2="hardAlpha" operator="arithmetic" k2="-1" k3="1"/>
<feColorMatrix type="matrix" values="0 0 0 0 0 0 0 0 0 0 0 0 0 0 0 0 0 0 0.25 0"/>
<feBlend mode="normal" in2="shape" result="effect1_innerShadow_14_30"/>
</filter>
<filter id="filter1_i_14_30" x="274" y="219" width="210.5" height="205" filterUnits="userSpaceOnUse" color-interpolation-filters="sRGB">
<feFlood flood-opacity="0" result="BackgroundImageFix"/>
<feBlend mode="normal" in="SourceGraphic" in2="BackgroundImageFix" result="shape"/>
<feColorMatrix in="SourceAlpha" type="matrix" values="0 0 0 0 0 0 0 0 0 0 0 0 0 0 0 0 0 0 127 0" result="hardAlpha"/>
<feOffset dy="-21"/>
<feComposite in2="hardAlpha" operator="arithmetic" k2="-1" k3="1"/>
<feColorMatrix type="matrix" values="0 0 0 0 0 0 0 0 0 0 0 0 0 0 0 0 0 0 0.25 0"/>
<feBlend mode="normal" in2="shape" result="effect1_innerShadow_14_30"/>
</filter>
<filter id="filter2_i_14_30" x="254" y="285" width="59" height="59" filterUnits="userSpaceOnUse" color-interpolation-filters="sRGB">
<feFlood flood-opacity="0" result="BackgroundImageFix"/>
<feBlend mode="normal" in="SourceGraphic" in2="BackgroundImageFix" result="shape"/>
<feColorMatrix in="SourceAlpha" type="matrix" values="0 0 0 0 0 0 0 0 0 0 0 0 0 0 0 0 0 0 127 0" result="hardAlpha"/>
<feOffset dy="-12"/>
<feComposite in2="hardAlpha" operator="arithmetic" k2="-1" k3="1"/>
<feColorMatrix type="matrix" values="0 0 0 0 0 0 0 0 0 0 0 0 0 0 0 0 0 0 0.25 0"/>
<feBlend mode="normal" in2="shape" result="effect1_innerShadow_14_30"/>
</filter>
<filter id="filter3_i_14_30" x="54" y="219" width="210.5" height="205" filterUnits="userSpaceOnUse" color-interpolation-filters="sRGB">
<feFlood flood-opacity="0" result="BackgroundImageFix"/>
<feBlend mode="normal" in="SourceGraphic" in2="BackgroundImageFix" result="shape"/>
<feColorMatrix in="SourceAlpha" type="matrix" values="0 0 0 0 0 0 0 0 0 0 0 0 0 0 0 0 0 0 127 0" result="hardAlpha"/>
<feOffset dy="-25"/>
<feComposite in2="hardAlpha" operator="arithmetic" k2="-1" k3="1"/>
<feColorMatrix type="matrix" values="0 0 0 0 0 0 0 0 0 0 0 0 0 0 0 0 0 0 0.25 0"/>
<feBlend mode="normal" in2="shape" result="effect1_innerShadow_14_30"/>
</filter>
<filter id="filter4_ii_14_30" x="274" y="0" width="205" height="205" filterUnits="userSpaceOnUse" color-interpolation-filters="sRGB">
<feFlood flood-opacity="0" result="BackgroundImageFix"/>
<feBlend mode="normal" in="SourceGraphic" in2="BackgroundImageFix" result="shape"/>
<feColorMatrix in="SourceAlpha" type="matrix" values="0 0 0 0 0 0 0 0 0 0 0 0 0 0 0 0 0 0 127 0" result="hardAlpha"/>
<feOffset dy="-21"/>
<feComposite in2="hardAlpha" operator="arithmetic" k2="-1" k3="1"/>
<feColorMatrix type="matrix" values="0 0 0 0 0 0 0 0 0 0 0 0 0 0 0 0 0 0 0.25 0"/>
<feBlend mode="normal" in2="shape" result="effect1_innerShadow_14_30"/>
<feColorMatrix in="SourceAlpha" type="matrix" values="0 0 0 0 0 0 0 0 0 0 0 0 0 0 0 0 0 0 127 0" result="hardAlpha"/>
<feOffset dy="12"/>
<feComposite in2="hardAlpha" operator="arithmetic" k2="-1" k3="1"/>
<feColorMatrix type="matrix" values="0 0 0 0 1 0 0 0 0 1 0 0 0 0 1 0 0 0 0.88 0"/>
<feBlend mode="normal" in2="effect1_innerShadow_14_30" result="effect2_innerShadow_14_30"/>
</filter>
<filter id="filter5_i_14_30" x="347" y="189" width="59" height="59" filterUnits="userSpaceOnUse" color-interpolation-filters="sRGB">
<feFlood flood-opacity="0" result="BackgroundImageFix"/>
<feBlend mode="normal" in="SourceGraphic" in2="BackgroundImageFix" result="shape"/>
<feColorMatrix in="SourceAlpha" type="matrix" values="0 0 0 0 0 0 0 0 0 0 0 0 0 0 0 0 0 0 127 0" result="hardAlpha"/>
<feOffset dy="-12"/>
<feComposite in2="hardAlpha" operator="arithmetic" k2="-1" k3="1"/>
<feColorMatrix type="matrix" values="0 0 0 0 0 0 0 0 0 0 0 0 0 0 0 0 0 0 0.25 0"/>
<feBlend mode="normal" in2="shape" result="effect1_innerShadow_14_30"/>
</filter>
<filter id="filter6_ii_14_30" x="254" y="66" width="59" height="59" filterUnits="userSpaceOnUse" color-interpolation-filters="sRGB">
<feFlood flood-opacity="0" result="BackgroundImageFix"/>
<feBlend mode="normal" in="SourceGraphic" in2="BackgroundImageFix" result="shape"/>
<feColorMatrix in="SourceAlpha" type="matrix" values="0 0 0 0 0 0 0 0 0 0 0 0 0 0 0 0 0 0 127 0" result="hardAlpha"/>
<feOffset dy="-12"/>
<feComposite in2="hardAlpha" operator="arithmetic" k2="-1" k3="1"/>
<feColorMatrix type="matrix" values="0 0 0 0 0 0 0 0 0 0 0 0 0 0 0 0 0 0 0.25 0"/>
<feBlend mode="normal" in2="shape" result="effect1_innerShadow_14_30"/>
<feColorMatrix in="SourceAlpha" type="matrix" values="0 0 0 0 0 0 0 0 0 0 0 0 0 0 0 0 0 0 127 0" result="hardAlpha"/>
<feOffset dy="12"/>
<feComposite in2="hardAlpha" operator="arithmetic" k2="-1" k3="1"/>
<feColorMatrix type="matrix" values="0 0 0 0 1 0 0 0 0 1 0 0 0 0 1 0 0 0 0.88 0"/>
<feBlend mode="normal" in2="effect1_innerShadow_14_30" result="effect2_innerShadow_14_30"/>
</filter>
<filter id="filter7_ii_14_30" x="0" y="66" width="59" height="59" filterUnits="userSpaceOnUse" color-interpolation-filters="sRGB">
<feFlood flood-opacity="0" result="BackgroundImageFix"/>
<feBlend mode="normal" in="SourceGraphic" in2="BackgroundImageFix" result="shape"/>
<feColorMatrix in="SourceAlpha" type="matrix" values="0 0 0 0 0 0 0 0 0 0 0 0 0 0 0 0 0 0 127 0" result="hardAlpha"/>
<feOffset dy="-12"/>
<feComposite in2="hardAlpha" operator="arithmetic" k2="-1" k3="1"/>
<feColorMatrix type="matrix" values="0 0 0 0 0 0 0 0 0 0 0 0 0 0 0 0 0 0 0.25 0"/>
<feBlend mode="normal" in2="shape" result="effect1_innerShadow_14_30"/>
<feColorMatrix in="SourceAlpha" type="matrix" values="0 0 0 0 0 0 0 0 0 0 0 0 0 0 0 0 0 0 127 0" result="hardAlpha"/>
<feOffset dy="12"/>
<feComposite in2="hardAlpha" operator="arithmetic" k2="-1" k3="1"/>
<feColorMatrix type="matrix" values="0 0 0 0 1 0 0 0 0 1 0 0 0 0 1 0 0 0 0.88 0"/>
<feBlend mode="normal" in2="effect1_innerShadow_14_30" result="effect2_innerShadow_14_30"/>
</filter>
<filter id="filter8_ii_14_30" x="48.5" y="0" width="216" height="205" filterUnits="userSpaceOnUse" color-interpolation-filters="sRGB">
<feFlood flood-opacity="0" result="BackgroundImageFix"/>
<feBlend mode="normal" in="SourceGraphic" in2="BackgroundImageFix" result="shape"/>
<feColorMatrix in="SourceAlpha" type="matrix" values="0 0 0 0 0 0 0 0 0 0 0 0 0 0 0 0 0 0 127 0" result="hardAlpha"/>
<feOffset dy="-21"/>
<feComposite in2="hardAlpha" operator="arithmetic" k2="-1" k3="1"/>
<feColorMatrix type="matrix" values="0 0 0 0 0 0 0 0 0 0 0 0 0 0 0 0 0 0 0.25 0"/>
<feBlend mode="normal" in2="shape" result="effect1_innerShadow_14_30"/>
<feColorMatrix in="SourceAlpha" type="matrix" values="0 0 0 0 0 0 0 0 0 0 0 0 0 0 0 0 0 0 127 0" result="hardAlpha"/>
<feOffset dy="12"/>
<feComposite in2="hardAlpha" operator="arithmetic" k2="-1" k3="1"/>
<feColorMatrix type="matrix" values="0 0 0 0 1 0 0 0 0 1 0 0 0 0 1 0 0 0 0.88 0"/>
<feBlend mode="normal" in2="effect1_innerShadow_14_30" result="effect2_innerShadow_14_30"/>
</filter>
<filter id="filter9_i_14_30" x="127" y="189" width="59" height="59" filterUnits="userSpaceOnUse" color-interpolation-filters="sRGB">
<feFlood flood-opacity="0" result="BackgroundImageFix"/>
<feBlend mode="normal" in="SourceGraphic" in2="BackgroundImageFix" result="shape"/>
<feColorMatrix in="SourceAlpha" type="matrix" values="0 0 0 0 0 0 0 0 0 0 0 0 0 0 0 0 0 0 127 0" result="hardAlpha"/>
<feOffset dy="-12"/>
<feComposite in2="hardAlpha" operator="arithmetic" k2="-1" k3="1"/>
<feColorMatrix type="matrix" values="0 0 0 0 0 0 0 0 0 0 0 0 0 0 0 0 0 0 0.25 0"/>
<feBlend mode="normal" in2="shape" result="effect1_innerShadow_14_30"/>
</filter>
</defs>
</svg>
